<svg id="Group_11666" data-name="Group 11666" xmlns="http://www.w3.org/2000/svg" xmlns:xlink="http://www.w3.org/1999/xlink" width="121" height="121" viewBox="0 0 121 121">
  <defs>
    <clipPath id="clip-path">
      <rect id="Rectangle_4791" data-name="Rectangle 4791" width="121" height="121" fill="none"/>
    </clipPath>
  </defs>
  <g id="Group_11665" data-name="Group 11665" clip-path="url(#clip-path)">
    <path id="Path_7030" data-name="Path 7030" d="M68.592,71.032A.824.824,0,0,1,68.361,71c-6.608-1.836-15.941-5.9-20.5-11.32-6.752-8.026-8.7-13.006-8.778-13.213a.864.864,0,0,1,1.613-.619c.019.048,1.95,4.949,8.487,12.717,3.492,4.147,11.384,8.475,19.642,10.772a.864.864,0,0,1-.23,1.7" transform="translate(28.431 33)" fill="#fff"/>
    <path id="Path_7031" data-name="Path 7031" d="M77.892,78.092a31.646,31.646,0,0,1-6.074-.688.865.865,0,0,1,.344-1.7c4.034.818,7.329.869,9.274.15,3.141-1.163,5.12-3.065,5.168-4.964.045-1.81-1.678-3.6-4.729-4.906C78.051,64.35,76.4,60.137,74.66,55.678c-2.033-5.2-4.335-11.087-10.517-14.107a21.372,21.372,0,0,0-16.821-.882c-3.295,1.283-5.734,3.412-6.691,5.843a.863.863,0,0,1-1.608-.631c1.149-2.921,3.874-5.345,7.673-6.821a23.094,23.094,0,0,1,18.205.939c6.786,3.315,9.22,9.538,11.369,15.03,1.677,4.29,3.127,8,6.283,9.35,5.115,2.194,5.817,5.037,5.779,6.537-.069,2.662-2.422,5.108-6.3,6.544a12.172,12.172,0,0,1-4.143.612" transform="translate(28.387 27.424)" fill="#fff"/>
    <path id="Path_7032" data-name="Path 7032" d="M73.794,66.935A19.4,19.4,0,1,1,60.94,42.69,19.4,19.4,0,0,1,73.794,66.935" transform="translate(26.109 30.477)" fill="#8488da"/>
    <path id="Path_7033" data-name="Path 7033" d="M41.448,51.152h0a1.185,1.185,0,0,0,1.468-.811l.451-1.566a1.186,1.186,0,1,0-2.278-.657l-.451,1.566a1.185,1.185,0,0,0,.811,1.468" transform="translate(29.573 34.433)"/>
    <path id="Path_7034" data-name="Path 7034" d="M49.814,53.563h0a1.185,1.185,0,0,0,1.468-.811l.451-1.566a1.186,1.186,0,0,0-2.278-.657L49,52.1a1.185,1.185,0,0,0,.811,1.468" transform="translate(35.669 36.19)"/>
    <path id="Path_7035" data-name="Path 7035" d="M47.987,62.322a14.859,14.859,0,0,1-6.643-1.646.865.865,0,0,1,.766-1.551c7.1,3.514,12.625-.15,15.287-2.646a.866.866,0,0,1,1.182,1.265,15.8,15.8,0,0,1-10.593,4.577" transform="translate(29.771 40.981)"/>
    <path id="Path_7036" data-name="Path 7036" d="M42.969,59.318a.869.869,0,0,1-.679-.327l-.411-.5c-.793-.954-1.613-1.943-1.357-3.251.271-1.39,1.7-2.686,4.788-4.334a.865.865,0,1,1,.814,1.526c-3.039,1.621-3.8,2.6-3.907,3.139-.093.479.316,1,.99,1.813l.439.534a.865.865,0,0,1-.678,1.4" transform="translate(29.488 37.012)"/>
    <path id="Path_7037" data-name="Path 7037" d="M17.071,65.238a.862.862,0,0,1-.342-.071C8.024,61.4,3.03,53.739,3.03,44.147c0-13.87,10.75-28.718,26.75-28.718,13.63,0,24.138,8.276,26.15,20.6a.864.864,0,0,1-.714.99.853.853,0,0,1-.992-.714c-1.9-11.63-11.493-19.144-24.444-19.144-14.966,0-25.021,13.955-25.021,26.99A20.331,20.331,0,0,0,17.415,63.58a.865.865,0,0,1-.344,1.658" transform="translate(2.208 11.241)" fill="#fff"/>
    <path id="Path_7038" data-name="Path 7038" d="M53.878,46.517A21.084,21.084,0,1,1,32.794,25.434,21.084,21.084,0,0,1,53.878,46.517" transform="translate(8.531 18.53)" fill="#8488da"/>
    <path id="Path_7039" data-name="Path 7039" d="M29.506,37.561h0a1.154,1.154,0,0,1-1.334-.942l-.27-1.564a1.155,1.155,0,0,1,2.277-.392l.27,1.564a1.156,1.156,0,0,1-.942,1.334" transform="translate(20.316 24.557)"/>
    <path id="Path_7040" data-name="Path 7040" d="M21.151,39h0a1.154,1.154,0,0,1-1.334-.942l-.27-1.564a1.155,1.155,0,0,1,2.277-.392l.27,1.564A1.155,1.155,0,0,1,21.151,39" transform="translate(14.229 25.606)"/>
    <path id="Path_7041" data-name="Path 7041" d="M28.48,49.611c-3.4,0-6.658-2.226-9.433-6.522a.864.864,0,1,1,1.452-.939c1.848,2.861,5.7,7.331,10.74,5.118a.865.865,0,1,1,.695,1.583,8.569,8.569,0,0,1-3.454.759" transform="translate(13.776 30.42)"/>
    <path id="Path_7042" data-name="Path 7042" d="M27.618,52.415a13.393,13.393,0,0,1-2.048-.15.863.863,0,0,1-.71-.992.848.848,0,0,1,.992-.712c.055.01,5.571.828,6.116-2.021.147-.771-.5-1.272-2.109-2.309a11.764,11.764,0,0,1-4.537-4.411,8.815,8.815,0,0,1,.776-8.961,6.6,6.6,0,0,1,6.978-2.346.864.864,0,0,1-.353,1.692,4.847,4.847,0,0,0-5.251,1.7,7.1,7.1,0,0,0-.612,7.125A10.167,10.167,0,0,0,30.8,44.776c1.6,1.03,3.251,2.093,2.869,4.086-.579,3.023-3.841,3.552-6.047,3.552" transform="translate(17.811 22.09)"/>
    <path id="Path_7043" data-name="Path 7043" d="M78.092,28.715A20.06,20.06,0,1,1,41.758,16.978c.38-.519.761-1,1.193-1.487a3.452,3.452,0,0,0,.449.086C51.731,16.909,62.224,14,64.9,9.856c.553.207,1.089.415,1.608.657a20.106,20.106,0,0,1,11.581,18.2" transform="translate(27.665 7.181)" fill="#8488da"/>
    <path id="Path_7044" data-name="Path 7044" d="M67.231,7.6c-2.748-2.558-8.8-3.647-14.192-1.037-3.786,1.867-6.88,1.348-9.611.9-2.3-.363-4.494-.726-6.171.847a5.691,5.691,0,0,0-1.3,5.894c.933,3.042,3.682,5.324,7.485,6.275a11.514,11.514,0,0,0,1.383.294A27.379,27.379,0,0,0,49.2,21.1c7.692,0,16.439-2.714,19-7.087a4.464,4.464,0,0,0,.38-.761A4.917,4.917,0,0,0,67.231,7.6M45.088,19.073a3.452,3.452,0,0,1-.449-.086c-3.613-.691-6.223-2.645-7.035-5.307a3.961,3.961,0,0,1,.847-4.114,2.748,2.748,0,0,1,2.057-.709,17.59,17.59,0,0,1,2.645.311c2.835.467,6.361,1.037,10.648-1.054,4.65-2.264,9.974-1.383,12.256.743a3.235,3.235,0,0,1,.916,3.751,4.309,4.309,0,0,1-.38.743c-2.679,4.149-13.172,7.053-21.5,5.722" transform="translate(25.977 3.686)" fill="#fff"/>
    <path id="Path_7045" data-name="Path 7045" d="M53.41,20.784h0a1.244,1.244,0,0,1-1.245-1.245V17.83a1.245,1.245,0,1,1,2.489,0v1.71a1.244,1.244,0,0,1-1.245,1.245" transform="translate(38.006 12.083)"/>
    <path id="Path_7046" data-name="Path 7046" d="M44.273,20.784h0a1.244,1.244,0,0,1-1.245-1.245V17.83a1.245,1.245,0,1,1,2.489,0v1.71a1.244,1.244,0,0,1-1.245,1.245" transform="translate(31.349 12.083)"/>
    <path id="Path_7047" data-name="Path 7047" d="M52.791,32.875c-3.519,0-6.569-4.143-6.709-4.337a.866.866,0,0,1,.688-1.372c.052,0,5.3-.145,12.181-5.182a1.3,1.3,0,0,1,1.523-.178c.835.508.64,1.751.574,2.161-.4,2.558-2.947,7.765-7.25,8.792a4.309,4.309,0,0,1-1.008.118M48.483,28.7c1.241,1.286,3.2,2.793,4.914,2.379,2.34-.558,3.907-2.736,4.629-3.986a10.805,10.805,0,0,0,1.288-3.238A28.041,28.041,0,0,1,48.483,28.7" transform="translate(33.455 15.765)"/>
    <path id="Path_7048" data-name="Path 7048" d="M49.16,28.573c-.847,0-3.39-.119-4.155-1.507a1.983,1.983,0,0,1,.214-2.133,14.265,14.265,0,0,1,1.065-1.424c1.077-1.31,1.855-2.258,1.317-6.449a.864.864,0,1,1,1.715-.22c.633,4.93-.446,6.245-1.7,7.766a12.74,12.74,0,0,0-.946,1.258.772.772,0,0,0-.156.368,4.359,4.359,0,0,0,2.653.612h.035a.864.864,0,0,1,.005,1.729Z" transform="translate(32.631 11.718)"/>
    <path id="Path_7049" data-name="Path 7049" d="M30.735,18.744a4.992,4.992,0,1,1,4.992-4.99,5,5,0,0,1-4.992,4.99m0-8.256A3.264,3.264,0,1,0,34,13.754a3.269,3.269,0,0,0-3.264-3.265" transform="translate(18.756 6.382)" fill="#fff"/>
    <path id="Path_7050" data-name="Path 7050" d="M17.085,62.58a6.553,6.553,0,1,1,6.553-6.553,6.56,6.56,0,0,1-6.553,6.553m0-11.377a4.824,4.824,0,1,0,4.824,4.824A4.83,4.83,0,0,0,17.085,51.2" transform="translate(7.673 36.045)" fill="#fff"/>
    <path id="Path_7051" data-name="Path 7051" d="M61.171,42.96A5.066,5.066,0,1,1,66.238,37.9a5.071,5.071,0,0,1-5.066,5.065m0-8.4A3.337,3.337,0,1,0,64.509,37.9a3.342,3.342,0,0,0-3.338-3.338" transform="translate(40.876 23.918)" fill="#fff"/>
  </g>
</svg>
