<?xml version="1.0" encoding="utf-8"?>
<!-- Generator: Adobe Illustrator 21.0.0, SVG Export Plug-In . SVG Version: 6.00 Build 0)  -->
<svg version="1.1" id="Layer_1" xmlns="http://www.w3.org/2000/svg" xmlns:xlink="http://www.w3.org/1999/xlink" x="0px" y="0px"
	 viewBox="0 0 487 163" style="enable-background:new 0 0 487 163;" xml:space="preserve">
<style type="text/css">
	.st0{fill:#1D1D1B;}
	.st1{fill:url(#SVGID_1_);}
	.st2{fill:url(#SVGID_2_);}
</style>
<path class="st0" d="M25.7,104.7l34-41.1H27V52.7h48.3v10.4l-33.5,40.8H77v11.2H25.7V104.7z"/>
<path class="st0" d="M81.1,71.5h12.2l9,28.3l9.2-28.3h10.7l9.2,28.2l8.8-28.2h11.5l-14.5,43.6h-10.8l-9.7-28.8l-9.5,28.8H96.3
	L81.1,71.5z"/>
<path class="st0" d="M177.6,116.4c-14.2,0-24.6-9.7-24.6-22.9c0-13.1,10.3-23.3,23.4-23.3c12.8,0,22.2,9.8,22.2,22.8
	c0,1.3-0.1,2.9-0.3,4.5h-32.9c1.1,5.3,5.5,8.7,12,8.7c4.4,0,7.6-1.6,10.8-5.4l9,6.7C192.7,113.2,185.8,116.4,177.6,116.4z
	 M186.5,88.5c-0.7-5-4.6-8.3-10.2-8.3c-5.7,0-9.2,3.5-10.6,8.3H186.5z"/>
<path class="st0" d="M204.8,71.5h10.5v3.1c2.7-2.9,6.8-4.5,11.8-4.5c10.2,0,17.3,7.2,17.3,17.5v27.5h-11.3V89.4c0-5.1-3.4-9-8.3-9
	c-4.9,0-8.7,3.8-8.7,8.6v26h-11.3V71.5z"/>
<path class="st0" d="M252.2,71.5h10.5v3.1c2.7-2.9,6.8-4.5,11.8-4.5c10.2,0,17.3,7.2,17.3,17.5v27.5h-11.3V89.4c0-5.1-3.4-9-8.3-9
	s-8.7,3.8-8.7,8.6v26h-11.3V71.5z"/>
<path class="st0" d="M416,115.1h-10.7v-3.8c-3.8,3.3-8.8,5.1-14.2,5.1c-12.6,0-22.7-10.3-22.7-23.1s10.1-23.1,22.7-23.1
	c5.4,0,10.3,1.9,14.2,5.1v-3.8H416V115.1z M392.6,106c6.8,0,12.1-5.5,12.1-12.7c0-7.2-5.4-12.7-12.1-12.7c-6.8,0-12.2,5.5-12.2,12.7
	C380.4,100.5,385.7,106,392.6,106z"/>
<path class="st0" d="M438.3,113.3l-17.5-41.8h12.3l11.5,29.6l11.6-29.6h12.3l-26.9,62.4h-12.1L438.3,113.3z"/>
<g>
	<linearGradient id="SVGID_1_" gradientUnits="userSpaceOnUse" x1="317.162" y1="89.6069" x2="325.7645" y2="113.242">
		<stop  offset="0" style="stop-color:#EB2FA6"/>
		<stop  offset="0.7074" style="stop-color:#B635E4"/>
		<stop  offset="1" style="stop-color:#9F38FF"/>
	</linearGradient>
	<path class="st1" d="M330.4,86.6l-7.7,27.8h-4.3c-0.7,0-1.4-0.1-2-0.3c-2.2-0.8-7.8-3.1-7.2-9.7c0.1-1.1,0.2-2.3,0.4-3.4
		c0,0,0,0,0,0v0c0,0,0,0,0,0v0c0,0,0,0,0,0c0.3-1,4-13.9,19.7-14.4H330.4z"/>
	<linearGradient id="SVGID_2_" gradientUnits="userSpaceOnUse" x1="320.927" y1="107.4632" x2="359.6755" y2="40.3489">
		<stop  offset="0" style="stop-color:#60458D"/>
		<stop  offset="0.4262" style="stop-color:#A238FC"/>
		<stop  offset="0.6171" style="stop-color:#BE35DB"/>
		<stop  offset="0.8681" style="stop-color:#DF31B5"/>
		<stop  offset="1" style="stop-color:#EB2FA6"/>
	</linearGradient>
	<path class="st2" d="M372.6,71.4c0,0-6.4,14.6-29.6,15.2h-11.9c-0.6,0-1.2,0-1.7,0c-15.7,0.4-19.5,13.4-19.7,14.4
		c0-0.3,0.1-0.5,0.2-0.8c0-0.1,0-0.2,0.1-0.3c0.5-2.3,1.8-8.1,4.2-17c3.2-11.6,12.6-10.8,12.6-10.8h21.9c3.3,0,6.4-1.7,8-4.6
		c1.5-2.8,0.7-4.9-0.6-6.3c-1.4-1.6-3.5-2.4-5.7-2.3L336.3,59c-3.1,0-6-1.3-7.8-3.8c-3.9-5.5-0.7-12.9,0.2-14.8c0-0.1,0.2-0.1,0.2,0
		c0,1.3,0.8,4.9,7.6,4.8l28.2-0.1c2.4,0,4.7,0.6,6.6,1.9C375.4,49.9,379.9,56.2,372.6,71.4z"/>
</g>
</svg>
